<svg width="22" height="22" viewBox="0 0 22 22" fill="none" xmlns="http://www.w3.org/2000/svg">
<g clip-path="url(#clip0_532_7292)">
<path d="M0.67749 14.5867C2.21644 18.6871 6.20878 21.6093 10.8919 21.6093C15.575 21.6093 19.5674 18.6871 21.1063 14.5867L10.8919 13.6504L0.67749 14.5867Z" fill="#FFDA44"/>
<path d="M10.8919 0.0732422C6.20878 0.0732422 2.21644 2.99541 0.67749 7.09587L10.8919 8.03218L21.1063 7.09583C19.5674 2.99541 15.575 0.0732422 10.8919 0.0732422Z" fill="black"/>
<path d="M0.677467 7.09473C0.239664 8.26125 0 9.52295 0 10.8401C0 12.1572 0.239664 13.4189 0.677467 14.5855H21.1064C21.5442 13.4189 21.7838 12.1572 21.7838 10.8401C21.7838 9.52295 21.5442 8.26125 21.1063 7.09473H0.677467Z" fill="#D80027"/>
</g>
<defs>
<clipPath id="clip0_532_7292">
<rect width="21.7838" height="21.536" fill="white" transform="translate(0 0.0722656)"/>
</clipPath>
</defs>
</svg>
