<svg width="18" height="18" viewBox="0 0 18 18" fill="none" xmlns="http://www.w3.org/2000/svg">
<g filter="url(#filter0_i_529_56)">
<path d="M6.07772 2.12109C3.84824 2.12109 2.03418 3.93622 2.03418 6.16626V11.9437C2.03418 14.1734 3.84931 15.9878 6.07935 15.9878H11.8568C14.0865 15.9878 15.9008 14.1726 15.9008 11.9426V6.16464C15.9008 3.93515 14.0857 2.12109 11.8557 2.12109H6.07772ZM13.1275 4.33976C13.4337 4.33976 13.6822 4.58825 13.6822 4.89443C13.6822 5.2006 13.4337 5.44909 13.1275 5.44909C12.8213 5.44909 12.5728 5.2006 12.5728 4.89443C12.5728 4.58825 12.8213 4.33976 13.1275 4.33976ZM8.96751 5.44909C10.956 5.44909 12.5728 7.06595 12.5728 9.05443C12.5728 11.0429 10.9557 12.6598 8.96751 12.6598C6.97903 12.6598 5.36218 11.0426 5.36218 9.05443C5.36218 7.06622 6.97903 5.44909 8.96751 5.44909ZM8.96751 6.55843C7.58889 6.55843 6.47151 7.6758 6.47151 9.05443C6.47151 10.4331 7.58889 11.5504 8.96751 11.5504C10.3461 11.5504 11.4635 10.4331 11.4635 9.05443C11.4635 7.6758 10.3461 6.55843 8.96751 6.55843Z" fill="#97B787"/>
</g>
<defs>
<filter id="filter0_i_529_56" x="0.0935059" y="0.179688" width="17.7494" height="18.1854" filterUnits="userSpaceOnUse" color-interpolation-filters="sRGB">
<feFlood flood-opacity="0" result="BackgroundImageFix"/>
<feBlend mode="normal" in="SourceGraphic" in2="BackgroundImageFix" result="shape"/>
<feColorMatrix in="SourceAlpha" type="matrix" values="0 0 0 0 0 0 0 0 0 0 0 0 0 0 0 0 0 0 127 0" result="hardAlpha"/>
<feOffset dy="0.436364"/>
<feGaussianBlur stdDeviation="0.818182"/>
<feComposite in2="hardAlpha" operator="arithmetic" k2="-1" k3="1"/>
<feColorMatrix type="matrix" values="0 0 0 0 0 0 0 0 0 0 0 0 0 0 0 0 0 0 0.2 0"/>
<feBlend mode="normal" in2="shape" result="effect1_innerShadow_529_56"/>
</filter>
</defs>
</svg>
