<svg width="17" height="17" viewBox="0 0 17 17" fill="none" xmlns="http://www.w3.org/2000/svg">
<g clip-path="url(#clip0_529_62)" filter="url(#filter0_i_529_62)">
<path fill-rule="evenodd" clip-rule="evenodd" d="M0.769654 1.99084C0.769654 1.66693 0.898326 1.35628 1.12736 1.12724C1.3564 0.898205 1.66705 0.769533 1.99096 0.769533H14.1654C14.326 0.769271 14.485 0.800672 14.6333 0.861939C14.7817 0.923206 14.9165 1.01314 15.0301 1.12658C15.1437 1.24002 15.2337 1.37475 15.2952 1.52305C15.3566 1.67135 15.3882 1.83032 15.3881 1.99084V14.1653C15.3883 14.3259 15.3568 14.4849 15.2954 14.6333C15.2341 14.7816 15.1441 14.9165 15.0306 15.03C14.9171 15.1436 14.7823 15.2336 14.634 15.2951C14.4857 15.3565 14.3267 15.388 14.1661 15.388H1.99096C1.83052 15.388 1.67165 15.3563 1.52343 15.2949C1.37521 15.2335 1.24055 15.1435 1.12713 15.03C1.01371 14.9165 0.923766 14.7818 0.862429 14.6336C0.801092 14.4853 0.769566 14.3264 0.769654 14.166V1.99084ZM6.55589 6.34314H8.53536V7.33719C8.82108 6.76574 9.552 6.25144 10.6504 6.25144C12.7561 6.25144 13.2551 7.38969 13.2551 9.47813V13.3467H11.1241V9.95389C11.1241 8.76448 10.8384 8.09336 10.1128 8.09336C9.10614 8.09336 8.68752 8.81698 8.68752 9.95389V13.3467H6.55589V6.34314ZM2.90129 13.2557H5.03292V6.25144H2.90129V13.255V13.2557ZM5.33791 3.96698C5.34193 4.14949 5.30945 4.33097 5.24239 4.50076C5.17532 4.67055 5.07501 4.82524 4.94735 4.95574C4.8197 5.08624 4.66726 5.18993 4.49898 5.26072C4.33071 5.3315 4.14999 5.36797 3.96743 5.36797C3.78488 5.36797 3.60416 5.3315 3.43588 5.26072C3.26761 5.18993 3.11517 5.08624 2.98751 4.95574C2.85985 4.82524 2.75955 4.67055 2.69248 4.50076C2.62541 4.33097 2.59294 4.14949 2.59696 3.96698C2.60485 3.60873 2.7527 3.26782 3.00885 3.01724C3.26501 2.76666 3.6091 2.62635 3.96743 2.62635C4.32577 2.62635 4.66986 2.76666 4.92601 3.01724C5.18217 3.26782 5.33002 3.60873 5.33791 3.96698Z" fill="#97B787"/>
</g>
<defs>
<filter id="filter0_i_529_62" x="0.105103" y="0.105469" width="15.9474" height="16.3836" filterUnits="userSpaceOnUse" color-interpolation-filters="sRGB">
<feFlood flood-opacity="0" result="BackgroundImageFix"/>
<feBlend mode="normal" in="SourceGraphic" in2="BackgroundImageFix" result="shape"/>
<feColorMatrix in="SourceAlpha" type="matrix" values="0 0 0 0 0 0 0 0 0 0 0 0 0 0 0 0 0 0 127 0" result="hardAlpha"/>
<feOffset dy="0.436364"/>
<feGaussianBlur stdDeviation="0.5"/>
<feComposite in2="hardAlpha" operator="arithmetic" k2="-1" k3="1"/>
<feColorMatrix type="matrix" values="0 0 0 0 0 0 0 0 0 0 0 0 0 0 0 0 0 0 0.2 0"/>
<feBlend mode="normal" in2="shape" result="effect1_innerShadow_529_62"/>
</filter>
<clipPath id="clip0_529_62">
<rect width="15.9474" height="15.9474" fill="white" transform="translate(0.105103 0.105469)"/>
</clipPath>
</defs>
</svg>
