<svg width="26" height="26" viewBox="0 0 26 26" fill="none" xmlns="http://www.w3.org/2000/svg">
<g clip-path="url(#clip0_173_3232)">
<path d="M12.1064 7.76828L12.2353 7.63828C12.6416 7.23209 13.1926 7.00391 13.7671 7.00391C14.3416 7.00391 14.8926 7.23209 15.299 7.63828L18.3637 10.7041C18.7699 11.1104 18.9981 11.6614 18.9981 12.2359C18.9981 12.8105 18.7699 13.3615 18.3637 13.7678L18.2294 13.9021M16.0627 16.0688L13.7628 18.3687C13.3565 18.7749 12.8055 19.0031 12.231 19.0031C11.6564 19.0031 11.1054 18.7749 10.6991 18.3687L7.63437 15.3018C7.22818 14.8955 7 14.3445 7 13.7699C7 13.1954 7.22818 12.6444 7.63437 12.2381L9.92345 9.95011" stroke="#013501" stroke-width="1.4" stroke-linecap="round" stroke-linejoin="round"/>
<path d="M17.5946 9.9362L20.9378 9.09986C21.2168 9.03015 21.4723 8.88764 21.6783 8.68688C21.8842 8.48612 22.0331 8.23431 22.1099 7.95715C22.1867 7.68 22.1886 7.38743 22.1153 7.10932C22.042 6.83122 21.8962 6.57754 21.6929 6.3742L19.2922 3.97245C19.1044 3.78453 18.8734 3.64552 18.6194 3.56758C18.3655 3.48965 18.0963 3.47518 17.8354 3.52543C17.5745 3.57568 17.33 3.68912 17.1231 3.85582C16.9163 4.02251 16.7534 4.23739 16.6489 4.48161L15.2969 7.63736" stroke="#013501" stroke-width="1.4" stroke-linecap="round" stroke-linejoin="round"/>
<path d="M9.9362 17.5966L9.09986 20.9397C9.03015 21.2188 8.88764 21.4743 8.68688 21.6802C8.48612 21.8861 8.23431 22.0351 7.95715 22.1119C7.68 22.1887 7.38743 22.1905 7.10932 22.1172C6.83122 22.044 6.57754 21.8982 6.3742 21.6948L3.97245 19.2942C3.78453 19.1064 3.64552 18.8754 3.56758 18.6214C3.48965 18.3674 3.47518 18.0982 3.52543 17.8373C3.57568 17.5765 3.68912 17.3319 3.85582 17.1251C4.02251 16.9182 4.23739 16.7554 4.48161 16.6508L7.63736 15.2988" stroke="#013501" stroke-width="1.4" stroke-linecap="round" stroke-linejoin="round"/>
<path d="M3.25 3.25L22.75 22.75" stroke="#013501" stroke-width="1.4" stroke-linecap="round" stroke-linejoin="round"/>
</g>
<defs>
<clipPath id="clip0_173_3232">
<rect width="26" height="26" fill="white"/>
</clipPath>
</defs>
</svg>
